<?xml version="1.0" encoding="utf-8"?>
<!-- Generator: Adobe Illustrator 16.0.0, SVG Export Plug-In . SVG Version: 6.00 Build 0)  -->
<!DOCTYPE svg PUBLIC "-//W3C//DTD SVG 1.1//EN" "http://www.w3.org/Graphics/SVG/1.1/DTD/svg11.dtd">
<svg version="1.1" xmlns="http://www.w3.org/2000/svg" xmlns:xlink="http://www.w3.org/1999/xlink" x="0px" y="0px"
	 width="311.812px" height="425.197px" viewBox="0 0 311.812 425.197" enable-background="new 0 0 311.812 425.197"
	 xml:space="preserve">
<g id="Layer_4">
</g>
<g id="Layer_3">
</g>
<g id="Layer_2">
</g>
<g id="Layer_1">
	<g>
		<g>
			<path d="M66.613,416.615c0,0-0.283-6.375-0.777-17.533c-0.214-5.578-0.474-12.353-0.771-20.123
				c-0.139-3.885-0.287-8.019-0.443-12.377c-0.151-4.358,0.045-8.94-0.008-13.723c0-38.253,0-89.257,0-140.261s0-102.008,0-140.261
				c-0.002-2.391,0.01-4.732-0.024-7.02c-0.039-2.288-0.031-4.523,0.06-6.702c0.164-4.358,0.318-8.492,0.464-12.377
				c0.291-7.77,0.545-14.544,0.754-20.123c0.193-5.579,0.419-9.962,0.543-12.95c0.132-2.989,0.203-4.583,0.203-4.583
				s0.071,1.594,0.203,4.583c0.124,2.988,0.35,7.372,0.543,12.95c0.209,5.579,0.463,12.353,0.754,20.123
				c0.146,3.885,0.3,8.019,0.464,12.377c0.091,2.179,0.099,4.414,0.06,6.702c-0.034,2.288-0.022,4.629-0.024,7.02
				c0,38.253,0,89.257,0,140.261s0,102.008,0,140.261c-0.053,4.782,0.143,9.364-0.008,13.723c-0.156,4.358-0.304,8.492-0.443,12.377
				c-0.298,7.77-0.558,14.544-0.771,20.123C66.896,410.239,66.613,416.615,66.613,416.615z"/>
		</g>
		<g>
			<path d="M66.613,8.583c0,0,0.698-0.073,2.005-0.209c1.308-0.131,3.227-0.354,5.668-0.567c2.441-0.228,5.406-0.506,8.807-0.771
				c1.7-0.139,3.51-0.287,5.417-0.443c0.954-0.083,1.932-0.069,2.934-0.031c1.001,0.027,2.026,0.024,3.072,0.023
				c16.743,0,39.065,0,61.389,0c22.323,0,44.646,0,61.388,0c1.047-0.002,2.071,0.008,3.073-0.018
				c1.001-0.046,1.979-0.042,2.933,0.053c1.908,0.156,3.718,0.304,5.418,0.443c3.4,0.267,6.365,0.543,8.807,0.766
				c2.441,0.211,4.36,0.427,5.668,0.553c1.309,0.132,2.006,0.203,2.006,0.203s-0.697,0.071-2.006,0.203
				c-1.308,0.126-3.227,0.342-5.668,0.553c-2.441,0.222-5.406,0.499-8.807,0.766c-1.7,0.139-3.51,0.287-5.418,0.443
				c-0.953,0.094-1.932,0.099-2.933,0.053c-1.002-0.026-2.026-0.016-3.073-0.018c-16.742,0-39.065,0-61.388,0
				c-22.323,0-44.646,0-61.389,0c-1.046-0.001-2.071-0.004-3.072,0.023c-1.001,0.038-1.98,0.051-2.934-0.031
				c-1.907-0.156-3.717-0.304-5.417-0.443c-3.401-0.266-6.366-0.543-8.807-0.771c-2.442-0.213-4.36-0.437-5.668-0.567
				C67.311,8.655,66.613,8.583,66.613,8.583z"/>
		</g>
		<g>
			<path d="M245.198,8.583c0,0,0.282,6.375,0.777,17.533c0.214,5.579,0.474,12.353,0.771,20.123
				c0.139,3.885,0.287,8.019,0.442,12.377c0.151,4.358-0.044,8.94,0.009,13.722c0,38.253,0,89.257,0,140.261s0,102.008,0,140.261
				c0.002,2.391-0.01,4.732,0.023,7.021c0.039,2.288,0.031,4.523-0.06,6.702c-0.163,4.358-0.318,8.492-0.464,12.377
				c-0.291,7.77-0.545,14.544-0.754,20.123c-0.193,5.579-0.42,9.962-0.543,12.95c-0.133,2.988-0.203,4.583-0.203,4.583
				s-0.07-1.594-0.203-4.583c-0.123-2.988-0.35-7.372-0.543-12.95c-0.209-5.578-0.463-12.353-0.754-20.123
				c-0.146-3.885-0.301-8.019-0.464-12.377c-0.091-2.179-0.099-4.414-0.06-6.702c0.033-2.288,0.021-4.629,0.023-7.021
				c0-38.253,0-89.257,0-140.261s0-102.008,0-140.261c0.053-4.782-0.143-9.364,0.009-13.722c0.155-4.358,0.304-8.492,0.442-12.377
				c0.298-7.77,0.558-14.544,0.771-20.123C244.916,14.958,245.198,8.583,245.198,8.583z"/>
		</g>
		<g>
			<path d="M245.198,416.615c0,0-0.049,0.073-0.14,0.209c-0.092,0.131-0.226,0.354-0.396,0.567
				c-0.171,0.228-0.378,0.506-0.615,0.771c-0.118,0.139-0.244,0.287-0.378,0.443c-0.066,0.085-0.135,0.072-0.204,0.031
				c-0.07-0.036-0.142-0.019-0.215-0.023c-1.168,0-2.726,0-4.284,0c-1.558,0-3.115,0-4.283,0c-0.073,0.004-0.145-0.012-0.215,0.018
				c-0.069,0.047-0.138,0.042-0.204-0.053c-0.134-0.156-0.26-0.304-0.378-0.443c-0.237-0.267-0.444-0.543-0.615-0.766
				c-0.17-0.211-0.304-0.427-0.396-0.553c-0.091-0.132-0.14-0.203-0.14-0.203s0.049-0.071,0.14-0.203
				c0.092-0.126,0.226-0.342,0.396-0.553c0.171-0.223,0.378-0.499,0.615-0.766c0.118-0.139,0.244-0.287,0.378-0.443
				c0.066-0.095,0.135-0.1,0.204-0.053c0.07,0.03,0.142,0.014,0.215,0.018c1.168,0,2.726,0,4.283,0c1.559,0,3.116,0,4.284,0
				c0.073-0.004,0.145,0.013,0.215-0.023c0.069-0.041,0.138-0.054,0.204,0.031c0.134,0.156,0.26,0.304,0.378,0.443
				c0.237,0.266,0.444,0.543,0.615,0.771c0.17,0.213,0.304,0.437,0.396,0.567C245.149,416.542,245.198,416.615,245.198,416.615z"/>
		</g>
		<g>
			<path d="M232.736,416.615c0,0-0.282-6.24-0.777-17.16c-0.214-5.46-0.474-12.09-0.771-19.695
				c-0.139-3.803-0.287-7.849-0.442-12.115c-0.151-4.266,0.044-8.75-0.009-13.431c0-37.44,0-87.36,0-137.281s0-99.841,0-137.281
				c-0.002-2.34,0.01-4.631-0.023-6.871c-0.039-2.24-0.031-4.427,0.06-6.56c0.163-4.266,0.318-8.312,0.464-12.115
				c0.291-7.605,0.545-14.235,0.754-19.695c0.193-5.46,0.42-9.75,0.543-12.675c0.133-2.925,0.203-4.485,0.203-4.485
				s0.07,1.56,0.203,4.485c0.123,2.925,0.35,7.215,0.543,12.675c0.209,5.46,0.463,12.09,0.754,19.695
				c0.146,3.803,0.301,7.849,0.464,12.115c0.091,2.133,0.099,4.32,0.06,6.56c-0.033,2.239-0.021,4.53-0.023,6.871
				c0,37.44,0,87.36,0,137.281s0,99.841,0,137.281c-0.053,4.68,0.143,9.165-0.009,13.431c-0.155,4.266-0.304,8.312-0.442,12.115
				c-0.298,7.604-0.558,14.235-0.771,19.695C233.019,410.375,232.736,416.615,232.736,416.615z"/>
		</g>
		<g>
			<path d="M232.736,17.252c0,0-0.617,0.073-1.774,0.209c-1.158,0.131-2.855,0.354-5.016,0.567
				c-2.161,0.228-4.784,0.506-7.794,0.771c-1.505,0.139-3.105,0.287-4.794,0.443c-0.844,0.083-1.71,0.069-2.596,0.031
				c-0.886-0.027-1.793-0.024-2.719-0.023c-14.815,0-34.569,0-54.323,0s-39.508,0-54.323,0c-0.926,0.002-1.833-0.008-2.719,0.018
				c-0.886,0.046-1.752,0.042-2.596-0.053c-1.688-0.156-3.289-0.304-4.794-0.443c-3.009-0.267-5.633-0.543-7.793-0.766
				c-2.161-0.211-3.858-0.427-5.016-0.553c-1.158-0.132-1.775-0.203-1.775-0.203s0.617-0.071,1.775-0.203
				c1.157-0.126,2.855-0.342,5.016-0.553c2.161-0.222,4.784-0.499,7.793-0.766c1.505-0.139,3.106-0.287,4.794-0.443
				c0.844-0.094,1.709-0.099,2.596-0.053c0.886,0.026,1.793,0.016,2.719,0.018c14.815,0,34.569,0,54.323,0s39.508,0,54.323,0
				c0.926,0.001,1.833,0.004,2.719-0.023c0.886-0.038,1.752-0.051,2.596,0.031c1.688,0.156,3.289,0.304,4.794,0.443
				c3.01,0.266,5.633,0.543,7.794,0.771c2.16,0.213,3.857,0.437,5.016,0.567C232.119,17.18,232.736,17.252,232.736,17.252z"/>
		</g>
		<g>
			<path d="M74.705,17.252c0,0,0.283,6.24,0.777,17.16c0.214,5.46,0.474,12.09,0.771,19.695c0.139,3.803,0.287,7.849,0.443,12.115
				c0.151,4.266-0.045,8.75,0.008,13.431c0,37.44,0,87.36,0,137.281s0,99.841,0,137.281c0.002,2.34-0.01,4.631,0.024,6.871
				c0.039,2.24,0.031,4.427-0.06,6.56c-0.164,4.266-0.318,8.312-0.464,12.115c-0.291,7.604-0.545,14.235-0.754,19.695
				c-0.193,5.46-0.419,9.75-0.543,12.675c-0.132,2.925-0.203,4.485-0.203,4.485s-0.071-1.56-0.203-4.485
				c-0.124-2.925-0.35-7.215-0.543-12.675c-0.209-5.46-0.463-12.09-0.754-19.695c-0.146-3.803-0.3-7.849-0.464-12.115
				c-0.091-2.133-0.099-4.32-0.06-6.56c0.034-2.239,0.022-4.53,0.024-6.871c0-37.44,0-87.36,0-137.281s0-99.841,0-137.281
				c0.053-4.68-0.143-9.165,0.008-13.431c0.156-4.266,0.304-8.312,0.443-12.115c0.298-7.605,0.558-14.235,0.771-19.695
				C74.422,23.492,74.705,17.252,74.705,17.252z"/>
		</g>
		<g>
			<path d="M83.225,411.99c0,0-0.283-6.077-0.777-16.713c-0.214-5.318-0.474-11.775-0.771-19.182
				c-0.139-3.704-0.287-7.645-0.443-11.799c-0.151-4.154,0.045-8.522-0.008-13.081c0-36.465,0-85.084,0-133.705s0-97.24,0-133.705
				c-0.002-2.279,0.01-4.511-0.024-6.692c-0.039-2.181-0.031-4.312,0.061-6.389c0.163-4.154,0.318-8.095,0.463-11.799
				c0.291-7.407,0.545-13.864,0.754-19.182c0.193-5.317,0.419-9.496,0.543-12.345c0.132-2.849,0.203-4.368,0.203-4.368
				s0.071,1.52,0.203,4.368c0.124,2.849,0.35,7.027,0.543,12.345c0.209,5.318,0.463,11.775,0.754,19.182
				c0.146,3.704,0.3,7.645,0.463,11.799c0.091,2.078,0.099,4.208,0.061,6.389c-0.034,2.181-0.022,4.413-0.024,6.692
				c0,36.465,0,85.084,0,133.705s0,97.24,0,133.705c-0.053,4.558,0.143,8.926-0.008,13.081c-0.156,4.155-0.304,8.096-0.443,11.799
				c-0.298,7.407-0.558,13.864-0.771,19.182C83.508,405.913,83.225,411.99,83.225,411.99z"/>
		</g>
		<g>
			<path d="M83.225,23.031c0,0,2.228-0.323,6.126-0.777c1.949-0.228,4.316-0.506,7.031-0.771c1.357-0.139,2.802-0.287,4.325-0.443
				c0.761-0.084,1.542-0.071,2.342-0.031c0.799,0.027,1.617,0.024,2.453,0.023c13.366,0,31.188,0,49.008,0
				c17.821,0,35.643,0,49.009,0c0.835-0.002,1.653,0.008,2.452-0.018c0.8-0.046,1.581-0.042,2.343,0.052
				c1.522,0.156,2.967,0.304,4.324,0.443c2.715,0.267,5.082,0.544,7.031,0.766c3.898,0.447,6.126,0.756,6.126,0.756
				s-2.228,0.31-6.126,0.756c-1.949,0.222-4.316,0.499-7.031,0.766c-1.357,0.139-2.802,0.287-4.324,0.443
				c-0.762,0.094-1.543,0.099-2.343,0.052c-0.799-0.025-1.617-0.016-2.452-0.018c-13.366,0-31.188,0-49.009,0
				c-17.821,0-35.642,0-49.008,0c-0.835-0.001-1.653-0.004-2.453,0.023c-0.799,0.04-1.581,0.053-2.342-0.031
				c-1.523-0.156-2.967-0.304-4.325-0.443c-2.715-0.265-5.082-0.543-7.031-0.771C85.453,23.354,83.225,23.031,83.225,23.031z"/>
		</g>
		<g>
			<path d="M225.795,23.031c0,0,0.282,6.078,0.777,16.713c0.214,5.318,0.474,11.775,0.771,19.182
				c0.139,3.704,0.287,7.645,0.442,11.799c0.151,4.155-0.044,8.523,0.009,13.081c0,36.465,0,85.084,0,133.705s0,97.24,0,133.705
				c0.002,2.279-0.01,4.511,0.023,6.692c0.039,2.181,0.031,4.312-0.06,6.389c-0.163,4.155-0.318,8.096-0.464,11.799
				c-0.291,7.407-0.545,13.864-0.754,19.182c-0.193,5.317-0.42,9.496-0.543,12.345c-0.133,2.849-0.203,4.368-0.203,4.368
				s-0.07-1.52-0.203-4.368c-0.123-2.849-0.35-7.027-0.543-12.345c-0.209-5.318-0.463-11.775-0.754-19.182
				c-0.146-3.704-0.301-7.645-0.464-11.799c-0.091-2.077-0.099-4.208-0.06-6.389c0.033-2.181,0.021-4.413,0.023-6.692
				c0-36.465,0-85.084,0-133.705s0-97.24,0-133.705c0.053-4.558-0.143-8.926,0.009-13.081c0.155-4.154,0.304-8.095,0.442-11.799
				c0.298-7.407,0.558-13.864,0.771-19.182C225.513,29.109,225.795,23.031,225.795,23.031z"/>
		</g>
		<path d="M98.786,245.732c0,3.404-2.761,8.861-6.164,8.861c-3.405,0-6.165-5.458-6.165-8.861c0-3.405,2.76-6.164,6.165-6.164
			C96.025,239.568,98.786,242.327,98.786,245.732z"/>
		<path d="M116.51,226.467H92.622c-2.342,0-4.239,2.243-4.239,5.01s1.897,5.008,4.239,5.008c2.34,0,4.238-2.242,4.238-5.008
			c0-0.542-0.092-1.054-0.225-1.542h19.875V226.467z"/>
		<g>
			<path d="M66.613,416.615c0,0,0.032-0.073,0.091-0.209c0.06-0.131,0.146-0.354,0.257-0.567c0.111-0.228,0.245-0.506,0.399-0.771
				c0.077-0.139,0.159-0.287,0.246-0.443c0.043-0.085,0.087-0.072,0.133-0.031c0.045,0.036,0.092,0.019,0.139,0.023
				c0.759,0,1.77,0,2.782,0s2.023,0,2.782,0c0.047-0.004,0.094,0.012,0.139-0.018c0.045-0.047,0.089-0.042,0.133,0.053
				c0.086,0.156,0.168,0.304,0.246,0.443c0.154,0.267,0.288,0.543,0.399,0.766c0.11,0.211,0.197,0.427,0.257,0.553
				c0.059,0.132,0.091,0.203,0.091,0.203s-0.032,0.071-0.091,0.203c-0.06,0.126-0.146,0.342-0.257,0.553
				c-0.111,0.223-0.245,0.499-0.399,0.766c-0.077,0.139-0.159,0.287-0.246,0.443c-0.043,0.095-0.087,0.1-0.133,0.053
				c-0.045-0.03-0.092-0.014-0.139-0.018c-0.759,0-1.77,0-2.782,0s-2.023,0-2.782,0c-0.047,0.004-0.094-0.013-0.139,0.023
				c-0.045,0.041-0.089,0.054-0.133-0.031c-0.086-0.156-0.168-0.304-0.246-0.443c-0.154-0.266-0.288-0.543-0.399-0.771
				c-0.11-0.213-0.197-0.437-0.257-0.567C66.645,416.688,66.613,416.615,66.613,416.615z"/>
		</g>
		<g>
			<path d="M74.705,416.615c0,0-0.001-0.082-0.004-0.236c0-0.149-0.015-0.395,0-0.646c0.008-0.264,0.017-0.585,0.052-0.906
				c0.015-0.166,0.03-0.343,0.047-0.53c0.005-0.1,0.058-0.113,0.125-0.104c0.065,0.006,0.105-0.035,0.157-0.059
				c0.799-0.434,1.864-1.012,2.929-1.59c1.065-0.578,2.13-1.156,2.929-1.59c0.047-0.031,0.104-0.043,0.138-0.095
				c0.025-0.067,0.074-0.088,0.165-0.03c0.166,0.088,0.323,0.171,0.47,0.249c0.29,0.146,0.563,0.313,0.785,0.445
				c0.217,0.122,0.412,0.262,0.535,0.339c0.125,0.083,0.192,0.126,0.192,0.126s0,0.08,0.001,0.23
				c-0.002,0.145,0.009,0.384-0.006,0.633c-0.01,0.259-0.02,0.579-0.055,0.901c-0.015,0.166-0.031,0.343-0.047,0.529
				c0,0.108-0.044,0.138-0.115,0.123c-0.062,0-0.103,0.041-0.155,0.064c-0.799,0.434-1.864,1.012-2.929,1.59
				c-1.065,0.578-2.13,1.156-2.929,1.589c-0.048,0.031-0.104,0.042-0.135,0.1c-0.029,0.062-0.069,0.099-0.155,0.048
				c-0.166-0.088-0.322-0.171-0.47-0.249c-0.289-0.146-0.563-0.313-0.788-0.45c-0.218-0.124-0.417-0.271-0.541-0.352
				C74.773,416.661,74.705,416.615,74.705,416.615z"/>
		</g>
		<g>
			<path d="M232.736,416.615c0,0-0.067,0.042-0.194,0.123c-0.123,0.075-0.321,0.211-0.535,0.325c-0.221,0.126-0.49,0.281-0.77,0.414
				c-0.144,0.072-0.296,0.148-0.456,0.229c-0.085,0.046-0.115,0.01-0.132-0.05c-0.019-0.056-0.068-0.068-0.106-0.099
				c-0.65-0.434-1.519-1.012-2.387-1.59c-0.867-0.578-1.734-1.156-2.386-1.59c-0.043-0.023-0.073-0.063-0.129-0.064
				c-0.065,0.013-0.101-0.016-0.085-0.12c0.012-0.179,0.023-0.349,0.035-0.509c0.016-0.31,0.054-0.617,0.082-0.865
				c0.022-0.239,0.067-0.468,0.087-0.607c0.022-0.144,0.034-0.221,0.034-0.221s0.066-0.041,0.19-0.117
				c0.121-0.071,0.315-0.201,0.527-0.313c0.218-0.122,0.486-0.275,0.767-0.409c0.144-0.072,0.296-0.148,0.456-0.229
				c0.09-0.055,0.131-0.033,0.144,0.032c0.022,0.051,0.071,0.063,0.109,0.094c0.65,0.434,1.519,1.012,2.387,1.589
				c0.867,0.578,1.734,1.156,2.386,1.59c0.043,0.024,0.073,0.064,0.132,0.061c0.062-0.008,0.107,0.006,0.097,0.103
				c-0.013,0.179-0.024,0.349-0.035,0.509c-0.015,0.309-0.054,0.617-0.085,0.87c-0.023,0.241-0.073,0.477-0.095,0.619
				C232.75,416.536,232.736,416.615,232.736,416.615z"/>
		</g>
		<g>
			<path d="M83.225,411.99c0,0,2.228-0.323,6.126-0.777c1.949-0.228,4.316-0.506,7.031-0.771c1.357-0.139,2.802-0.287,4.325-0.443
				c0.761-0.085,1.542-0.071,2.342-0.032c0.799,0.028,1.617,0.024,2.453,0.023c13.366,0,31.188,0,49.008,0
				c17.821,0,35.643,0,49.009,0c0.835-0.002,1.653,0.008,2.452-0.018c0.8-0.046,1.581-0.042,2.343,0.052
				c1.522,0.156,2.967,0.304,4.324,0.443c2.715,0.268,5.082,0.544,7.031,0.766c3.898,0.447,6.126,0.757,6.126,0.757
				s-2.228,0.31-6.126,0.757c-1.949,0.222-4.316,0.498-7.031,0.766c-1.357,0.139-2.802,0.287-4.324,0.443
				c-0.762,0.094-1.543,0.098-2.343,0.052c-0.799-0.025-1.617-0.016-2.452-0.018c-13.366,0-31.188,0-49.009,0
				c-17.821,0-35.642,0-49.008,0c-0.835-0.001-1.653-0.004-2.453,0.023c-0.799,0.039-1.581,0.053-2.342-0.032
				c-1.523-0.156-2.967-0.304-4.325-0.443c-2.715-0.265-5.082-0.543-7.031-0.771C85.453,412.313,83.225,411.99,83.225,411.99z"/>
		</g>
		<g>
			<path d="M74.705,416.615c0,0,0.617-0.073,1.775-0.209c1.157-0.131,2.855-0.354,5.016-0.567c2.161-0.228,4.784-0.506,7.793-0.771
				c1.505-0.139,3.106-0.287,4.794-0.443c0.844-0.083,1.709-0.069,2.596-0.031c0.886,0.027,1.793,0.024,2.719,0.023
				c14.815,0,34.569,0,54.323,0s39.508,0,54.323,0c0.926-0.002,1.833,0.008,2.719-0.018c0.886-0.046,1.752-0.042,2.596,0.053
				c1.688,0.156,3.289,0.304,4.794,0.443c3.01,0.267,5.633,0.543,7.794,0.766c2.16,0.211,3.857,0.427,5.016,0.553
				c1.157,0.132,1.774,0.203,1.774,0.203s-0.617,0.071-1.774,0.203c-1.158,0.126-2.855,0.342-5.016,0.553
				c-2.161,0.223-4.784,0.499-7.794,0.766c-1.505,0.139-3.105,0.287-4.794,0.443c-0.844,0.094-1.71,0.099-2.596,0.053
				c-0.886-0.026-1.793-0.016-2.719-0.018c-14.815,0-34.569,0-54.323,0s-39.508,0-54.323,0c-0.926-0.001-1.833-0.004-2.719,0.023
				c-0.886,0.038-1.752,0.051-2.596-0.031c-1.688-0.156-3.289-0.304-4.794-0.443c-3.009-0.266-5.633-0.543-7.793-0.771
				c-2.161-0.213-3.858-0.437-5.016-0.567C75.322,416.688,74.705,416.615,74.705,416.615z"/>
		</g>
		<g>
			<path d="M66.613,8.583c0,0,0.085-0.016,0.244-0.045c0.155-0.026,0.405-0.085,0.672-0.112c0.277-0.037,0.615-0.083,0.963-0.099
				c0.179-0.013,0.369-0.025,0.569-0.04c0.105-0.012,0.14,0.045,0.156,0.121c0.019,0.073,0.078,0.111,0.123,0.165
				c0.758,0.813,1.77,1.897,2.781,2.98c1.012,1.084,2.023,2.167,2.782,2.98c0.051,0.048,0.085,0.109,0.152,0.137
				c0.08,0.017,0.121,0.067,0.094,0.179c-0.027,0.199-0.054,0.388-0.078,0.565c-0.041,0.347-0.109,0.68-0.161,0.95
				c-0.044,0.263-0.115,0.503-0.148,0.653c-0.038,0.154-0.058,0.236-0.058,0.236s-0.083,0.014-0.239,0.041
				c-0.152,0.023-0.396,0.077-0.662,0.103c-0.273,0.033-0.609,0.078-0.958,0.095c-0.179,0.012-0.369,0.025-0.569,0.039
				c-0.113,0.019-0.161-0.026-0.171-0.106c-0.023-0.069-0.083-0.107-0.126-0.161c-0.758-0.813-1.77-1.897-2.781-2.98
				c-1.012-1.084-2.023-2.167-2.782-2.98c-0.05-0.048-0.084-0.109-0.156-0.133c-0.075-0.021-0.129-0.059-0.11-0.164
				c0.028-0.199,0.054-0.388,0.079-0.565c0.04-0.346,0.109-0.68,0.165-0.954c0.045-0.265,0.122-0.51,0.158-0.663
				C66.592,8.666,66.613,8.583,66.613,8.583z"/>
		</g>
		<g>
			<path d="M74.705,17.252c0,0,0.074-0.038,0.213-0.108c0.136-0.066,0.353-0.188,0.589-0.287c0.244-0.109,0.542-0.244,0.853-0.353
				c0.159-0.06,0.329-0.124,0.507-0.191c0.094-0.04,0.132,0.003,0.158,0.069c0.028,0.062,0.086,0.081,0.134,0.118
				c0.798,0.542,1.864,1.264,2.929,1.987c1.065,0.722,2.13,1.445,2.929,1.986c0.052,0.03,0.092,0.077,0.156,0.084
				c0.074-0.006,0.119,0.029,0.111,0.139c0.003,0.191,0.006,0.372,0.01,0.542c0.012,0.331-0.001,0.656-0.01,0.918
				c-0.002,0.254-0.032,0.495-0.041,0.642c-0.012,0.152-0.018,0.233-0.018,0.233s-0.073,0.036-0.209,0.103
				c-0.134,0.063-0.346,0.179-0.581,0.275c-0.241,0.104-0.538,0.238-0.85,0.349c-0.159,0.06-0.329,0.124-0.507,0.191
				c-0.099,0.048-0.148,0.02-0.169-0.052c-0.031-0.057-0.089-0.076-0.137-0.114c-0.798-0.542-1.864-1.264-2.929-1.986
				c-1.065-0.722-2.13-1.444-2.929-1.986c-0.052-0.03-0.091-0.078-0.16-0.08c-0.07,0.001-0.125-0.02-0.122-0.121
				c-0.003-0.191-0.007-0.372-0.01-0.542c-0.013-0.33,0.001-0.656,0.013-0.924c0.004-0.256,0.038-0.502,0.048-0.653
				C74.697,17.335,74.705,17.252,74.705,17.252z"/>
		</g>
		<g>
			<path d="M225.795,23.031c0,0-0.02-0.079-0.057-0.226c-0.032-0.143-0.101-0.376-0.143-0.62c-0.051-0.254-0.113-0.563-0.151-0.877
				c-0.022-0.162-0.047-0.334-0.072-0.516c-0.018-0.097,0.029-0.118,0.094-0.119c0.062-0.005,0.091-0.051,0.134-0.082
				c0.651-0.542,1.519-1.264,2.387-1.987c0.867-0.722,1.735-1.444,2.386-1.986c0.038-0.037,0.089-0.058,0.108-0.113
				c0.009-0.069,0.05-0.097,0.147-0.055c0.174,0.058,0.339,0.113,0.494,0.166c0.303,0.095,0.595,0.211,0.832,0.303
				c0.23,0.083,0.442,0.187,0.574,0.242c0.136,0.06,0.208,0.091,0.208,0.091s0.018,0.077,0.052,0.221
				c0.03,0.139,0.094,0.367,0.134,0.608c0.048,0.25,0.109,0.559,0.147,0.874c0.023,0.162,0.048,0.334,0.073,0.516
				c0.023,0.104-0.012,0.139-0.08,0.135c-0.059,0.01-0.088,0.056-0.131,0.086c-0.651,0.542-1.519,1.264-2.387,1.986
				c-0.867,0.723-1.735,1.445-2.386,1.987c-0.038,0.037-0.089,0.057-0.104,0.117c-0.014,0.063-0.043,0.105-0.135,0.07
				c-0.174-0.058-0.339-0.113-0.494-0.165c-0.302-0.094-0.595-0.212-0.835-0.308c-0.232-0.085-0.449-0.194-0.584-0.252
				C225.869,23.064,225.795,23.031,225.795,23.031z"/>
		</g>
		<g>
			<path d="M232.736,17.252c0,0,0.007-0.094,0.021-0.27c0.017-0.17,0.022-0.447,0.071-0.741c0.04-0.306,0.088-0.678,0.174-1.061
				c0.039-0.197,0.081-0.406,0.125-0.626c0.019-0.116,0.095-0.152,0.187-0.168c0.091-0.019,0.152-0.083,0.228-0.13
				c1.169-0.813,2.727-1.896,4.284-2.98c1.558-1.084,3.115-2.167,4.283-2.98c0.071-0.055,0.152-0.09,0.205-0.164
				c0.043-0.087,0.113-0.131,0.234-0.1c0.222,0.036,0.433,0.069,0.631,0.101c0.39,0.054,0.755,0.137,1.052,0.201
				c0.291,0.055,0.549,0.139,0.712,0.179c0.167,0.045,0.256,0.069,0.256,0.069s-0.009,0.092-0.024,0.264
				c-0.019,0.167-0.029,0.438-0.079,0.729c-0.043,0.301-0.093,0.672-0.177,1.056c-0.04,0.197-0.081,0.406-0.125,0.627
				c-0.013,0.124-0.078,0.175-0.175,0.186c-0.088,0.024-0.149,0.088-0.225,0.135c-1.169,0.813-2.727,1.896-4.284,2.98
				c-1.558,1.084-3.115,2.167-4.283,2.98c-0.071,0.054-0.152,0.09-0.202,0.168c-0.047,0.081-0.107,0.14-0.223,0.117
				c-0.222-0.036-0.433-0.069-0.631-0.101c-0.389-0.053-0.755-0.138-1.055-0.206c-0.293-0.057-0.554-0.146-0.72-0.19
				C232.826,17.278,232.736,17.252,232.736,17.252z"/>
		</g>
		<g>
			<path d="M100.37,32.086c0,0,0.09,0.684,0.259,1.965c0.084,0.641,0.189,1.432,0.312,2.361c0.109,0.933,0.27,1.996,0.486,3.171
				c0.203,1.173,0.428,2.471,0.672,3.885c0.302,1.403,0.629,2.919,0.978,4.541c0.339,1.616,0.857,3.306,1.313,5.092
				c0.445,1.788,0.771,3.697,1.255,5.66c0.477,1.962,1.101,3.974,1.686,6.072c0.349,1.031,0.704,2.08,1.064,3.146
				c0.353,1.068,0.718,2.149,1.164,3.219c0.424,1.077,0.854,2.168,1.289,3.273c0.455,1.097,0.975,2.181,1.467,3.292
				c0.948,2.24,2.172,4.407,3.297,6.667c2.458,4.413,5.232,8.842,8.384,13.11c3.195,4.234,6.714,8.325,10.498,12.163
				c3.838,3.784,7.929,7.303,12.163,10.498c4.269,3.152,8.698,5.926,13.111,8.384c2.26,1.125,4.426,2.349,6.666,3.297
				c1.111,0.493,2.196,1.013,3.293,1.467c1.104,0.435,2.196,0.865,3.273,1.289c1.069,0.445,2.15,0.811,3.219,1.164
				c1.064,0.36,2.113,0.715,3.146,1.063c2.097,0.586,4.109,1.209,6.071,1.687c1.961,0.491,3.873,0.8,5.654,1.28
				c1.787,0.456,3.477,0.974,5.094,1.313c1.621,0.349,3.139,0.676,4.541,0.978c1.419,0.243,2.723,0.466,3.899,0.667
				c1.181,0.214,2.24,0.374,3.165,0.479c0.927,0.12,1.715,0.221,2.354,0.303c1.283,0.165,1.968,0.253,1.968,0.253
				s-0.687,0.053-1.975,0.153c-0.646,0.05-1.443,0.111-2.381,0.184c-0.47,0.034-0.975,0.071-1.514,0.11
				c-0.539,0.009-1.112,0.018-1.717,0.028c-1.216,0.018-2.563,0.037-4.027,0.059c-1.468-0.063-3.054-0.129-4.749-0.201
				c-1.701-0.07-3.494-0.305-5.405-0.468c-0.961-0.056-1.917-0.275-2.883-0.55c-0.971-0.25-1.972-0.471-2.992-0.708
				c-2.034-0.495-4.12-1.139-6.294-1.749c-1.069-0.361-2.157-0.729-3.262-1.102c-1.106-0.366-2.228-0.746-3.337-1.207
				c-1.116-0.44-2.248-0.886-3.394-1.337c-1.137-0.471-2.262-1.009-3.413-1.521c-2.321-0.985-4.569-2.249-6.91-3.418
				c-4.575-2.545-9.165-5.422-13.589-8.689c-4.389-3.31-8.628-6.957-12.604-10.879c-3.922-3.977-7.57-8.215-10.879-12.604
				c-3.267-4.423-6.144-9.013-8.689-13.588c-1.169-2.341-2.433-4.589-3.418-6.91c-0.511-1.151-1.049-2.277-1.521-3.414
				c-0.451-1.146-0.897-2.277-1.337-3.394c-0.46-1.108-0.84-2.229-1.207-3.336c-0.373-1.104-0.741-2.192-1.102-3.262
				c-0.609-2.173-1.253-4.26-1.749-6.294c-0.235-1.021-0.461-2.02-0.713-2.991c-0.266-0.968-0.502-1.92-0.571-2.879
				c-0.163-1.912-0.397-3.705-0.468-5.407c-0.072-1.695-0.139-3.282-0.201-4.75c0.023-1.471,0.044-2.822,0.064-4.042
				c0.011-0.606,0.021-1.179,0.03-1.719c0.027-0.536,0.08-1.038,0.114-1.505c0.075-0.934,0.14-1.729,0.192-2.374
				C100.314,32.774,100.37,32.086,100.37,32.086z"/>
		</g>
		<g>
			<path d="M210.382,402.962c0,0-0.09-0.684-0.259-1.966c-0.085-0.641-0.189-1.431-0.312-2.36c-0.109-0.933-0.271-1.997-0.486-3.172
				c-0.203-1.173-0.428-2.471-0.673-3.885c-0.302-1.403-0.628-2.92-0.978-4.541c-0.339-1.617-0.856-3.306-1.313-5.092
				c-0.444-1.788-0.771-3.697-1.254-5.659c-0.478-1.963-1.101-3.975-1.687-6.072c-0.349-1.032-0.703-2.081-1.063-3.146
				c-0.354-1.067-0.719-2.149-1.164-3.218c-0.424-1.077-0.854-2.168-1.289-3.273c-0.455-1.097-0.975-2.182-1.468-3.292
				c-0.948-2.24-2.171-4.407-3.297-6.667c-2.457-4.413-5.231-8.842-8.384-13.11c-3.194-4.234-6.714-8.325-10.498-12.163
				c-3.838-3.784-7.928-7.303-12.163-10.498c-4.269-3.151-8.698-5.926-13.11-8.383c-2.26-1.125-4.427-2.349-6.667-3.296
				c-1.111-0.493-2.195-1.013-3.292-1.468c-1.105-0.435-2.196-0.865-3.273-1.289c-1.069-0.445-2.15-0.811-3.218-1.164
				c-1.065-0.36-2.114-0.715-3.146-1.064c-2.097-0.585-4.109-1.209-6.072-1.686c-1.961-0.491-3.873-0.801-5.654-1.281
				c-1.787-0.457-3.477-0.974-5.093-1.313c-1.621-0.349-3.139-0.676-4.542-0.978c-1.419-0.243-2.723-0.466-3.9-0.667
				c-1.18-0.214-2.239-0.375-3.165-0.479c-0.927-0.119-1.715-0.221-2.354-0.304c-1.283-0.165-1.967-0.252-1.967-0.252
				s0.687-0.053,1.975-0.153c0.646-0.05,1.443-0.111,2.38-0.184c0.47-0.034,0.976-0.07,1.515-0.109
				c0.539-0.009,1.112-0.018,1.717-0.027c1.216-0.018,2.562-0.038,4.027-0.059c1.467,0.062,3.053,0.129,4.749,0.2
				c1.702,0.07,3.494,0.305,5.405,0.468c0.961,0.057,1.917,0.275,2.883,0.55c0.971,0.25,1.972,0.471,2.992,0.708
				c2.034,0.495,4.121,1.14,6.294,1.749c1.069,0.362,2.157,0.729,3.262,1.102c1.107,0.367,2.228,0.746,3.336,1.207
				c1.116,0.44,2.248,0.886,3.394,1.337c1.137,0.471,2.262,1.009,3.414,1.52c2.321,0.985,4.569,2.249,6.91,3.418
				c4.576,2.545,9.166,5.422,13.589,8.689c4.389,3.31,8.628,6.957,12.604,10.879c3.922,3.976,7.569,8.215,10.879,12.604
				c3.267,4.423,6.144,9.013,8.689,13.588c1.169,2.341,2.434,4.589,3.419,6.911c0.511,1.151,1.049,2.276,1.52,3.413
				c0.452,1.146,0.897,2.277,1.338,3.394c0.46,1.109,0.84,2.229,1.206,3.337c0.373,1.104,0.741,2.192,1.103,3.262
				c0.609,2.173,1.253,4.26,1.748,6.294c0.234,1.021,0.462,2.021,0.714,2.991c0.266,0.968,0.502,1.92,0.57,2.879
				c0.162,1.911,0.397,3.705,0.468,5.406c0.072,1.695,0.139,3.282,0.201,4.75c-0.023,1.471-0.045,2.821-0.063,4.042
				c-0.011,0.606-0.021,1.18-0.03,1.719c-0.027,0.537-0.08,1.038-0.114,1.506c-0.075,0.935-0.14,1.729-0.191,2.374
				C210.438,402.274,210.382,402.962,210.382,402.962z"/>
		</g>
	</g>
</g>
</svg>
